<svg xmlns="http://www.w3.org/2000/svg" viewBox="0 0 1200 650" role="img" aria-labelledby="t d">
<title id="t">The map he kept</title><desc id="d">SIR GARRICK · CEDRIC · THE ARCHWAY</desc>
<defs>
 <filter id="paper"><feTurbulence baseFrequency=".7" numOctaves="3" seed="7" type="fractalNoise" result="n"/><feColorMatrix in="n" type="saturate" values="0"/><feComponentTransfer><feFuncA type="table" tableValues="0 .13"/></feComponentTransfer></filter>
 <filter id="rough"><feTurbulence baseFrequency=".025" numOctaves="2" seed="4" result="n"/><feDisplacementMap in="SourceGraphic" in2="n" scale="1.6"/></filter>
 <pattern id="grid" width="32" height="32" patternUnits="userSpaceOnUse"><path d="M32 0H0V32" fill="none" stroke="#76533a" stroke-opacity=".12" stroke-width="1"/></pattern>
 <pattern id="hatch" width="9" height="9" patternUnits="userSpaceOnUse" patternTransform="rotate(18)"><line x1="0" y1="0" x2="0" y2="9" stroke="#76533a" stroke-opacity=".18" stroke-width="2"/></pattern>
</defs>
<rect width="100%" height="100%" fill="#efe2c4"/><rect width="100%" height="100%" fill="url(#grid)"/><rect width="100%" height="100%" filter="url(#paper)" opacity=".6"/>
<path d="M38 42 Q210 18 390 42 T760 42 T1162 42" fill="none" stroke="#76533a" stroke-opacity=".28" stroke-width="2"/>
<path d="M48 606 Q260 585 520 606 T1150 606" fill="none" stroke="#76533a" stroke-opacity=".25" stroke-width="2"/>
<g stroke="#2a1a12" stroke-width="4" fill="none" filter="url(#rough)"><circle cx="350" cy="220" r="48"/><path d="M350 270v190M350 330l-115 80M350 330l120 40M350 460l-78 110M350 460l95 110"/><circle cx="690" cy="230" r="42"/><path d="M690 272v175M690 325l-95 45M690 325l100 75M690 447l-70 110M690 447l85 105"/><path d="M430 350h150v110H430zM448 375h115M448 405h90M448 435h105"/></g><g stroke="#8c3329" stroke-width="2" fill="none"><path d="M100 555h900"/><path d="M490 205v280" stroke-dasharray="7 6"/></g><g fill="#76533a" font-family="Georgia,serif" font-size="15" font-style="italic"><text x="760" y="200">five milestones</text><text x="760" y="224">weekly coaching</text><text x="760" y="248">sponsor named</text></g>
<text x="48" y="72" font-family="Georgia,serif" font-size="30" font-weight="700" fill="#2a1a12">The map he kept</text>
<text x="49" y="98" font-family="Georgia,serif" font-size="15" letter-spacing="2" fill="#8c3329">SIR GARRICK · CEDRIC · THE ARCHWAY</text>
<text x="970" y="625" font-family="Georgia,serif" font-size="13" fill="#76533a">CODex of the Royal Keep · folio I</text>
</svg>