<svg xmlns="http://www.w3.org/2000/svg" viewBox="0 0 700 700" role="img"><title>Pip</title><defs>
 <linearGradient id="paper" x1="0" y1="0" x2="1" y2="1"><stop stop-color="#f2dfb7"/><stop offset="1" stop-color="#e5c998"/></linearGradient>
 <filter id="rough"><feTurbulence baseFrequency=".018" numOctaves="2" seed="6" result="n"/><feDisplacementMap in="SourceGraphic" in2="n" scale="1.2"/></filter>
 <pattern id="grain" width="28" height="28" patternUnits="userSpaceOnUse"><path d="M28 0H0V28" fill="none" stroke="#6d4326" stroke-opacity=".07"/></pattern>
 <filter id="shadow"><feDropShadow dx="0" dy="5" stdDeviation="5" flood-opacity=".25"/></filter>
 </defs><rect width="700" height="700" fill="url(#paper)"/><rect width="700" height="700" fill="url(#grain)"/><path d="M20 24H680V676H20Z" fill="none" stroke="#6d4326" stroke-width="2" opacity=".45"/><path d="M34 38H666V662H34Z" fill="none" stroke="#6d4326" stroke-width="1" opacity=".25"/><text x="48" y="70" font-family="Georgia,serif" font-size="30" font-weight="700" fill="#28180f">Pip</text><text x="49" y="98" font-family="Georgia,serif" font-size="14" letter-spacing="2" fill="#842c22">fox spirit · questionable innocence</text><g filter="url(#rough)" stroke="#28180f" stroke-width="4" stroke-linejoin="round"><path d="M230 650q15-170 100-216q88 46 101 216" fill="#8c4d2c"/><path d="M230 510q101 45 201 0" fill="none" stroke="#f2dfb7" stroke-width="24"/><path d="M330 202l-72-58l11 94q-38 35-32 90q8 89 93 103q86-14 94-103q6-55-32-90l11-94z" fill="#ad6534"/><path d="M284 295l32 24l-35 19M376 295l-32 24l35 19" fill="#f5dfb6"/><circle cx="295" cy="294" r="9" fill="#17110c"/><circle cx="365" cy="294" r="9" fill="#17110c"/><path d="M330 330l-14 15h28z" fill="#17110c"/></g><g fill="none" stroke="#842c22" stroke-width="1.4" opacity=".55"><circle cx="330" cy="300" r="152"/><path d="M115 300h430M330 130v385" stroke-dasharray="7 8"/></g><g fill="#6d4326" font-family="Georgia,serif" font-style="italic" font-size="15"><text x="468" y="230">study of bearing</text><text x="470" y="255">gesture reveals intent</text><text x="55" y="660">folio characteris</text></g></svg>