<svg xmlns="http://www.w3.org/2000/svg" viewBox="0 0 1200 650" role="img"><title>The Stables</title><defs>
 <linearGradient id="paper" x1="0" y1="0" x2="1" y2="1"><stop stop-color="#f2dfb7"/><stop offset="1" stop-color="#e5c998"/></linearGradient>
 <filter id="rough"><feTurbulence baseFrequency=".018" numOctaves="2" seed="6" result="n"/><feDisplacementMap in="SourceGraphic" in2="n" scale="1.2"/></filter>
 <pattern id="grain" width="28" height="28" patternUnits="userSpaceOnUse"><path d="M28 0H0V28" fill="none" stroke="#6d4326" stroke-opacity=".07"/></pattern>
 <filter id="shadow"><feDropShadow dx="0" dy="5" stdDeviation="5" flood-opacity=".25"/></filter>
 </defs><rect width="1200" height="650" fill="url(#paper)"/><rect width="1200" height="650" fill="url(#grain)"/><path d="M20 24H1180V626H20Z" fill="none" stroke="#6d4326" stroke-width="2" opacity=".45"/><path d="M34 38H1166V612H34Z" fill="none" stroke="#6d4326" stroke-width="1" opacity=".25"/><text x="48" y="70" font-family="Georgia,serif" font-size="30" font-weight="700" fill="#28180f">The Stables</text><text x="49" y="98" font-family="Georgia,serif" font-size="14" letter-spacing="2" fill="#842c22">care · readiness · responsibility</text><g filter="url(#rough)" stroke="#28180f" stroke-width="4" stroke-linejoin="round"><path d="M105 515V245h990v270" fill="#9f7046"/><path d="M90 245l510-145l510 145" fill="#7b261d"/><path d="M210 515V320h210v195M500 515V320h210v195M790 515V320h210v195" fill="#ead9b7"/><path d="M260 430q50-105 110 0q-10 75-55 75t-55-75M550 430q50-105 110 0q-10 75-55 75t-55-75M840 430q50-105 110 0q-10 75-55 75t-55-75" fill="#6b4a32"/></g><g fill="#6d4326" font-family="Georgia,serif" font-size="16" font-style="italic"><text x="78" y="600">field study · royal keep</text><text x="855" y="590">what does this place teach?</text></g></svg>